<?xml version="1.0" encoding="UTF-8" standalone="no"?><!DOCTYPE svg PUBLIC "-//W3C//DTD SVG 1.1//EN" "http://www.w3.org/Graphics/SVG/1.1/DTD/svg11.dtd"><svg width="100%" height="100%" viewBox="0 0 3334 3334" version="1.1" xmlns="http://www.w3.org/2000/svg" xmlns:xlink="http://www.w3.org/1999/xlink" xml:space="preserve" xmlns:serif="http://www.serif.com/" style="fill-rule:evenodd;clip-rule:evenodd;stroke-linejoin:round;stroke-miterlimit:2;"><g id="SVGRepo_iconCarrier"><g><g><path d="M-855.447,-855.447l-0,5044.23l5044.23,0l0,-5044.23l-5044.23,-0Zm3783.17,2251.88l-450.375,-0l-0,540.452l450.375,-0l-0,540.451l-450.375,0l-0,450.385l-540.452,-0l0,-450.375l-540.451,-0l-0,450.375l-540.452,-0l0,-450.375l-450.384,-0l-0,-540.452l450.374,0l0,-540.451l-450.374,-0l-0,-540.452l450.374,0l0,-450.384l540.452,-0l-0,450.374l540.452,0l-0,-450.374l540.451,-0l0,450.374l450.385,0l-0,540.452Z" style="fill:#009483;fill-rule:nonzero;"/></g></g><g><g><rect x="1396.44" y="1396.44" width="540.452" height="540.452" style="fill:#009483;"/></g></g></g></svg>